<?xml version="1.0" encoding="UTF-8"?>
<!DOCTYPE svg PUBLIC "-//W3C//DTD SVG 1.1//EN" "http://www.w3.org/Graphics/SVG/1.1/DTD/svg11.dtd">
<!-- Creator: CorelDRAW X6 -->
<?xml-stylesheet href="Безымянный-1.css" type="text/css"?>
<svg xmlns="http://www.w3.org/2000/svg" xml:space="preserve" version="1.1" style="shape-rendering:geometricPrecision; text-rendering:geometricPrecision; image-rendering:optimizeQuality; fill-rule:evenodd; clip-rule:evenodd"
viewBox="0 0 11000 14300"
 xmlns:xlink="http://www.w3.org/1999/xlink">
  <path class="fil0" d="M1271 5430c0,-883 53,-1367 475,-2178 28,-53 63,-108 94,-160 314,-519 680,-895 1180,-1247 1211,-853 2906,-900 4206,-226 103,53 210,126 316,192 754,473 1437,1410 1660,2263 365,1398 52,2857 -939,3888l-109 117c-1220,1168 -3017,1508 -4523,803 -134,-63 -201,-81 -324,-156 -491,-299 -678,-457 -1071,-877 -75,-81 -141,-182 -208,-271 -406,-538 -758,-1415 -758,-2149zm-1073 -226c0,1172 260,2369 687,3321 87,193 142,341 235,527 208,416 556,1084 832,1454 111,149 201,307 306,456 416,589 891,1139 1391,1658 74,77 92,122 168,199l1408 1274c224,175 240,27 650,-304 667,-538 1419,-1365 1980,-2028 614,-725 1184,-1546 1610,-2398 177,-353 332,-665 475,-1049 208,-561 405,-1161 496,-1762 185,-1220 162,-2148 -290,-3279 -68,-171 -160,-360 -250,-512 -159,-267 -416,-684 -630,-894 -145,-142 -209,-262 -374,-388l-415 -347c-328,-246 -578,-390 -949,-576 -1254,-628 -3083,-600 -4337,20l-500 262c-171,102 -297,194 -452,310 -1035,771 -2040,2260 -2040,4056z"/>
  <path class="fil0" d="M3698 6107c-396,0 -452,-107 -452,-480 0,-77 141,-282 367,-282 550,0 472,762 85,762zm3585 0c-143,0 -259,17 -373,-79 -205,-174 -145,-683 260,-683 356,0 498,387 317,627 -31,41 -148,135 -204,135zm-3076 -2286l2343 0c128,0 186,314 238,496 45,160 154,412 157,576l-3133 0c3,-132 115,-442 159,-575 43,-132 97,-498 236,-498zm226 -536c-819,0 -826,466 -1083,1345 -137,468 -60,163 -364,341 -327,191 -247,604 -247,1080 0,254 115,444 278,540 213,126 1198,143 1508,186l812 37c164,9 219,-30 393,-30l1594 -99c344,-47 608,-134 608,-662 0,-404 63,-787 -175,-1011 -174,-164 -214,-28 -296,-184l-331 -1109c-192,-485 -673,-406 -837,-435 -171,-31 36,-146 -189,-402 -233,-264 -677,-189 -1137,-189 -367,0 -536,228 -536,593z"/>
  <path class="fil0" d="M6747 7039c0,135 22,256 95,356 154,210 723,310 723,-413 0,-153 -398,-58 -628,-35 -102,10 -191,-18 -191,91z"/>
  <path class="fil0" d="M3190 6982c0,832 790,646 790,113 0,-163 -15,-131 -165,-146 -92,-9 -124,-17 -230,-24 -126,-8 -395,-96 -395,56z"/>
</svg>
